<?xml version="1.0" encoding="utf-8"?>
<!-- Generator: Adobe Illustrator 23.1.0, SVG Export Plug-In . SVG Version: 6.00 Build 0)  -->
<svg version="1.1" id="Layer_1" xmlns="http://www.w3.org/2000/svg" xmlns:xlink="http://www.w3.org/1999/xlink" x="0px" y="0px"
	 viewBox="0 0 180.79 137.81" style="enable-background:new 0 0 180.79 137.81;" xml:space="preserve">
<style type="text/css">
	.st0{fill:url(#SVGID_1_);}
	.st1{fill:url(#SVGID_2_);}
	.st2{fill:url(#SVGID_3_);}
</style>
<g>
	
		<radialGradient id="SVGID_1_" cx="110.876" cy="69.3675" r="65.3391" gradientTransform="matrix(0.9662 0 0 1 6.1118 0)" gradientUnits="userSpaceOnUse">
		<stop  offset="0" style="stop-color:#00AEEF"/>
		<stop  offset="1" style="stop-color:#27AAE1"/>
	</radialGradient>
	<path class="st0" d="M129.77,29.84c0-2.57-0.27-4.54-0.82-5.91c-0.54-1.37-1.32-2.05-2.33-2.05c-1.4,0-2.95,2.07-4.66,6.21
		c-1.71,4.14-3.36,9.73-4.95,16.77c-1.59,7.04-2.9,14.7-3.9,22.98c4.82-5.87,8.8-12.26,11.95-19.18
		C128.2,41.75,129.77,35.47,129.77,29.84z"/>
	
		<radialGradient id="SVGID_2_" cx="110.876" cy="69.3675" r="65.3391" gradientTransform="matrix(0.9662 0 0 1 6.1118 0)" gradientUnits="userSpaceOnUse">
		<stop  offset="0" style="stop-color:#00AEEF"/>
		<stop  offset="1" style="stop-color:#27AAE1"/>
	</radialGradient>
	<path class="st1" d="M180.74,66.21C179.3,28.18,148.34-1.44,111.6,0.05C78.52,1.4,52.04,27.5,48.14,60.44
		c2.39,0.13,4.16,0.77,5.22,1.98c1.19,1.36,1.78,3.43,1.78,6.23c0,2.71-0.78,7.63-2.34,14.75c-0.66,3.05-1.11,5.34-1.35,6.87
		c4.09-10.43,8.64-18.02,13.64-22.76c5-4.75,9.67-7.12,14.01-7.12c5.32,0,7.99,2.76,7.99,8.27c0,3.31-0.9,9.28-2.7,17.93
		c-1.56,7.38-2.33,12.25-2.33,14.63c0,3.39,1.19,5.09,3.56,5.09c1.64,0,3.58-1.04,5.84-3.12c1.59-1.47,3.57-3.6,5.93-6.36
		c0-0.22,0-0.42,0-0.63c0-12.38,1.22-25.29,3.67-38.72c2.45-13.43,6.06-24.71,10.84-33.83c4.78-9.13,10.51-13.69,17.19-13.69
		c3.57,0,6.47,1.59,8.68,4.76c2.21,3.18,3.32,7.3,3.32,12.36c0,8.12-2.29,16.55-6.88,25.27c-4.58,8.73-12.04,18.92-22.38,30.58
		c-0.23,4.18-0.35,8.49-0.35,12.91c2.56-6.83,5.42-12.4,8.57-16.71c3.15-4.3,6.25-7.38,9.32-9.23c3.07-1.85,5.89-2.77,8.45-2.77
		c2.49,0,4.37,0.66,5.65,1.99c1.28,1.33,1.92,3.28,1.92,5.85c0,2.09-0.43,6.03-1.28,11.82c-0.78,4.91-1.4,9.55-1.86,13.93
		c-0.47,4.38-0.7,9.27-0.7,14.65c0,3.06-0.6,5.25-1.81,6.57c-1.21,1.33-3.17,1.99-5.89,1.99c-2.56,0-4.43-0.68-5.59-2.05
		c-1.17-1.37-1.75-3.42-1.75-6.15c0-3.22,0.54-8.52,1.63-15.92c0.93-6.43,1.4-10.53,1.4-12.3c0-1.29-0.43-1.93-1.28-1.93
		c-1.01,0-2.45,1.35-4.31,4.04c-1.86,2.69-3.73,6.25-5.59,10.67c-1.86,4.42-3.38,9.09-4.55,13.99c-0.86,3.78-1.85,6.33-2.97,7.66
		c-1.13,1.33-2.89,1.99-5.3,1.99c-2.41,0-4.18-0.9-5.3-2.71c-1.13-1.81-1.89-4.6-2.27-8.38c-0.01-0.12-0.02-0.26-0.04-0.39
		c-1.43,1.28-2.89,2.46-4.38,3.52c-4.05,2.88-8.66,4.32-13.82,4.32c-4.18,0-7.33-1.25-9.46-3.75c-2.13-2.5-3.19-6.12-3.19-10.87
		c0-2.37,0.57-6.61,1.72-12.72c1.06-5.34,1.6-9.03,1.6-11.06c0-1.35-0.45-2.04-1.35-2.04c-1.07,0-2.58,1.42-4.55,4.26
		c-1.97,2.84-3.93,6.59-5.9,11.25c-0.95,2.26-1.81,4.58-2.59,6.96c11.81,22,34.87,36.5,60.83,35.44
		C153.56,136.27,182.17,104.23,180.74,66.21z"/>
	<linearGradient id="SVGID_3_" gradientUnits="userSpaceOnUse" x1="8.2461" y1="92.2678" x2="50.4231" y2="88.9774">
		<stop  offset="0" style="stop-color:#00AEEF"/>
		<stop  offset="1" style="stop-color:#27AAE1"/>
	</linearGradient>
	<path class="st2" d="M48.14,60.44c-0.29-0.02-0.55-0.06-0.87-0.06c-2.87,0-5.92,1.12-9.15,3.37C34.88,66,31.73,69.42,28.66,74
		c-3.07,4.58-5.71,10.17-7.93,16.79c0.33-3.73,0.74-6.85,1.23-9.35c0.49-2.5,1.15-5.45,1.97-8.84c1.23-4.75,1.84-7.8,1.84-9.16
		c0-1.19-0.33-1.99-0.98-2.42c-0.66-0.42-1.8-0.64-3.44-0.64c-3.03,0-5.39,0.57-7.07,1.72c-1.68,1.14-2.89,2.95-3.62,5.4
		C7.63,77.43,6.11,87.9,6.11,98.92c0,7.46,0.63,12.89,1.9,16.28c1.27,3.39,3.46,5.09,6.57,5.09c2.54,0,4.4-0.7,5.59-2.1
		c1.19-1.4,2.23-4.09,3.13-8.08c1.06-4.58,2.48-9.24,4.24-13.99c1.76-4.75,3.58-8.65,5.47-11.7c1.88-3.05,3.44-4.58,4.67-4.58
		c0.9,0,1.35,0.68,1.35,2.04c0,1.7-0.33,5.26-0.98,10.68c-0.82,6.1-1.23,10.77-1.23,13.99c0,3.82,0.68,7.06,2.03,9.73
		c1.35,2.67,3.38,4.01,6.08,4.01c2.62,0,4.52-0.68,5.71-2.04c1.19-1.35,2.23-4.07,3.13-8.14c0.63-2.67,1.37-5.26,2.2-7.8
		c-4.9-9.14-7.88-19.56-8.3-30.71C47.54,67.81,47.71,64.09,48.14,60.44z"/>
</g>
</svg>
